<?xml version="1.0" standalone="no"?>
<!DOCTYPE svg PUBLIC "-//W3C//DTD SVG 20010904//EN"
 "http://www.w3.org/TR/2001/REC-SVG-20010904/DTD/svg10.dtd">
<svg version="1.0" xmlns="http://www.w3.org/2000/svg"
 width="600.000000pt" height="600.000000pt" viewBox="0 0 600.000000 600.000000"
 preserveAspectRatio="xMidYMid meet">
<metadata>
Created by potrace 1.11, written by Peter Selinger 2001-2013
</metadata>
<g transform="translate(0.000000,600.000000) scale(0.100000,-0.100000)"
fill="#000000" stroke="none">
<path d="M459 5558 c-1 -2 -2 -1152 -3 -2555 -1 -1699 2 -2553 9 -2554 5 -1
296 -1 645 0 349 0 1190 1 1868 1 l1232 0 0 330 0 330 -1525 0 c-839 0 -1526
3 -1526 8 -1 4 -2 379 -3 835 l-1 827 1772 0 c1682 0 1773 -1 1774 -17 0 -10
1 -534 1 -1165 l1 -1148 351 0 351 0 -1 2543 c0 1399 -3 2548 -6 2553 -4 5
-148 9 -350 9 l-343 0 -2 -1050 c-1 -577 -2 -1053 -2 -1058 -1 -4 -799 -6
-1773 -5 l-1773 3 0 725 0 725 1528 3 1527 2 0 330 0 330 -1875 0 c-1031 0
-1876 -1 -1876 -2z"/>
</g>
</svg>
